<svg width="72" height="72" viewBox="0 0 72 72" fill="none" xmlns="http://www.w3.org/2000/svg">
<path d="M36.0003 26.6274C30.8394 26.6274 26.6277 30.8391 26.6277 36C26.6277 41.161 30.8394 45.3727 36.0003 45.3727C41.1613 45.3727 45.373 41.161 45.373 36C45.373 30.8391 41.1613 26.6274 36.0003 26.6274ZM64.1113 36C64.1113 32.1188 64.1464 28.2727 63.9285 24.3985C63.7105 19.8985 62.6839 15.9047 59.3933 12.6141C56.0956 9.31645 52.1089 8.29692 47.6089 8.07895C43.7277 7.86098 39.8816 7.89613 36.0074 7.89613C32.1261 7.89613 28.28 7.86098 24.4058 8.07895C19.9058 8.29692 15.9121 9.32348 12.6214 12.6141C9.32377 15.9118 8.30424 19.8985 8.08627 24.3985C7.8683 28.2797 7.90346 32.1258 7.90346 36C7.90346 39.8743 7.8683 43.7274 8.08627 47.6016C8.30424 52.1016 9.3308 56.0954 12.6214 59.386C15.9191 62.6836 19.9058 63.7032 24.4058 63.9211C28.2871 64.1391 32.1331 64.1039 36.0074 64.1039C39.8886 64.1039 43.7347 64.1391 47.6089 63.9211C52.1089 63.7032 56.1027 62.6766 59.3933 59.386C62.691 56.0883 63.7105 52.1016 63.9285 47.6016C64.1535 43.7274 64.1113 39.8813 64.1113 36ZM36.0003 50.4211C28.0199 50.4211 21.5792 43.9805 21.5792 36C21.5792 28.0196 28.0199 21.5789 36.0003 21.5789C43.9808 21.5789 50.4214 28.0196 50.4214 36C50.4214 43.9805 43.9808 50.4211 36.0003 50.4211ZM51.0121 24.3563C49.1488 24.3563 47.6441 22.8516 47.6441 20.9883C47.6441 19.125 49.1488 17.6204 51.0121 17.6204C52.8753 17.6204 54.38 19.125 54.38 20.9883C54.3806 21.4308 54.2938 21.869 54.1248 22.2778C53.9557 22.6867 53.7077 23.0582 53.3948 23.3711C53.0819 23.6839 52.7104 23.932 52.3016 24.1011C51.8927 24.2701 51.4545 24.3568 51.0121 24.3563Z" fill="black"/>
</svg>
