<svg width="47" height="61" viewBox="0 0 47 61" fill="none" xmlns="http://www.w3.org/2000/svg">
<path d="M41.1484 13.0446C40.7824 12.8317 40.4261 12.5983 40.0808 12.3452C39.0774 11.599 38.1574 10.7198 37.3406 9.72655C35.2944 7.09431 34.5305 4.42412 34.2509 2.55634H34.2605C34.0268 1.00302 34.1232 0 34.14 0H24.8252V40.5083C24.8252 41.0505 24.8252 41.59 24.806 42.1213C24.806 42.1864 24.7987 42.246 24.7963 42.3192C24.7963 42.3463 24.7963 42.3788 24.7891 42.4086V42.433C24.6913 43.8861 24.2774 45.2899 23.584 46.5208C22.8906 47.7517 21.9389 48.7721 20.8125 49.4921C19.6374 50.2441 18.3084 50.6384 16.9565 50.6361C12.6184 50.6361 9.09973 46.6566 9.09973 41.7418C9.09973 36.8243 12.6184 32.8447 16.9565 32.8447C17.7783 32.8447 18.5953 32.9911 19.3761 33.2785L19.3882 22.6085C17.0167 22.2644 14.6076 22.477 12.3129 23.2328C10.0182 23.9887 7.88765 25.2715 6.05585 27.0001C4.45041 28.5685 3.10062 30.4399 2.06723 32.5303C1.6744 33.292 0.189813 36.358 0.0114702 41.3297C-0.101802 44.149 0.65254 47.0767 1.01164 48.2831V48.3102C1.23577 49.0204 2.11302 51.4494 3.53977 53.496C4.69031 55.1388 6.0497 56.582 7.57417 57.7792V57.7521L7.59586 57.7792C12.1026 61.222 17.1035 60.997 17.1035 60.997C17.9687 60.9563 20.8679 60.997 24.1601 59.2431C27.8113 57.2967 29.8887 54.3988 29.8887 54.3988C31.2169 52.6669 32.2732 50.6931 33.0121 48.5623C33.8556 46.0683 34.1352 43.0809 34.1352 41.8882V20.3938C34.2485 20.4697 35.7548 21.5893 35.7548 21.5893C35.7548 21.5893 37.9238 23.1534 41.3051 24.17C43.7296 24.8938 47 25.0483 47 25.0483V14.6468C45.8552 14.7877 43.5295 14.3811 41.146 13.0474L41.1484 13.0446Z" fill="black"/>
</svg>
