<svg width="69" height="62" viewBox="0 0 69 62" fill="none" xmlns="http://www.w3.org/2000/svg">
<path d="M69 7.35433C66.4626 8.59712 63.7367 9.43684 60.8711 9.81639C63.8279 7.86083 66.04 4.783 67.0946 1.1572C64.3167 2.98103 61.2763 4.26482 58.1057 4.95273C55.9736 2.43648 53.1496 0.768662 50.072 0.208225C46.9945 -0.352212 43.8356 0.226086 41.0859 1.85333C38.3362 3.48058 36.1494 6.06574 34.8651 9.20744C33.5808 12.3491 33.2709 15.8716 33.9834 19.228C28.3545 18.9156 22.8479 17.2985 17.8211 14.4816C12.7942 11.6647 8.35938 7.71092 4.80441 2.87694C3.58887 5.19457 2.88994 7.88168 2.88994 10.7434C2.88858 13.3197 3.46256 15.8565 4.56094 18.1287C5.65931 20.401 7.24813 22.3384 9.18643 23.7692C6.93852 23.6901 4.74021 23.0188 2.77447 21.811V22.0125C2.77424 25.6258 3.90501 29.1279 5.97492 31.9245C8.04483 34.7212 10.9264 36.6402 14.1306 37.3559C12.0453 37.9797 9.85904 38.0715 7.7369 37.6246C8.64095 40.7336 10.402 43.4523 12.7734 45.4001C15.1448 47.3479 18.0079 48.4273 20.9619 48.4872C15.9473 52.8383 9.75435 55.1985 3.37919 55.1882C2.2499 55.1885 1.12157 55.1156 0 54.9698C6.47115 59.5687 14.004 62.0094 21.6973 62C47.7402 62 61.9772 38.1586 61.9772 17.4814C61.9772 16.8096 61.962 16.1311 61.9347 15.4593C64.704 13.2457 67.0944 10.5046 68.9939 7.36441L69 7.35433Z" fill="black"/>
</svg>
